REM DIRINDEX 1\2,1\3,1\4,1\5
REM DIRNAME "folder01","folder02","folder03","folder04","folder05"
TITLE ""
FILE "1Q_t_1988-2000.mp3" MP3
  TRACK 01 AUDIO
    TITLE "0:"
    INDEX 01 00:00:00
  TRACK 02 AUDIO
    TITLE "3:cjc172_6970"
    INDEX 01 00:00:08
  TRACK 03 AUDIO
    TITLE "0:"
    INDEX 01 00:01:22
  TRACK 04 AUDIO
    TITLE "4:cjc172_6971"
    INDEX 01 00:01:31
  TRACK 05 AUDIO
    TITLE "0:"
    INDEX 01 00:04:71
  TRACK 06 AUDIO
    TITLE "5:cjc172_6972"
    INDEX 01 00:05:04
  TRACK 07 AUDIO
    TITLE "0:"
    INDEX 01 00:10:05
  TRACK 08 AUDIO
    TITLE "3:cjc172_6973"
    INDEX 01 00:10:52
  TRACK 09 AUDIO
    TITLE "0:"
    INDEX 01 00:11:69
  TRACK 10 AUDIO
    TITLE "4:cjc172_6974"
    INDEX 01 00:12:02
  TRACK 11 AUDIO
    TITLE "0:"
    INDEX 01 00:13:17
  TRACK 12 AUDIO
    TITLE "5:cjc172_6975"
    INDEX 01 00:13:29
  TRACK 13 AUDIO
    TITLE "0:"
    INDEX 01 00:17:38
  TRACK 14 AUDIO
    TITLE "3:cjc172_6976"
    INDEX 01 00:18:08
  TRACK 15 AUDIO
    TITLE "0:"
    INDEX 01 00:19:12
  TRACK 16 AUDIO
    TITLE "4:cjc172_6977"
    INDEX 01 00:19:21
  TRACK 17 AUDIO
    TITLE "0:"
    INDEX 01 00:20:52
  TRACK 18 AUDIO
    TITLE "5:cjc172_6978"
    INDEX 01 00:20:60
  TRACK 19 AUDIO
    TITLE "0:"
    INDEX 01 00:24:54
  TRACK 20 AUDIO
    TITLE "3:cjc172_6979"
    INDEX 01 00:25:26
  TRACK 21 AUDIO
    TITLE "0:"
    INDEX 01 00:26:47
  TRACK 22 AUDIO
    TITLE "4:cjc172_6980"
    INDEX 01 00:26:55
  TRACK 23 AUDIO
    TITLE "0:"
    INDEX 01 00:29:06
  TRACK 24 AUDIO
    TITLE "5:cjc172_6981"
    INDEX 01 00:29:14
  TRACK 25 AUDIO
    TITLE "0:"
    INDEX 01 00:33:67
  TRACK 26 AUDIO
    TITLE "3:cjc172_6982"
    INDEX 01 00:34:43
  TRACK 27 AUDIO
    TITLE "0:"
    INDEX 01 00:35:60
  TRACK 28 AUDIO
    TITLE "4:cjc172_6983"
    INDEX 01 00:35:69
  TRACK 29 AUDIO
    TITLE "0:"
    INDEX 01 00:37:15
  TRACK 30 AUDIO
    TITLE "5:cjc172_6984"
    INDEX 01 00:37:23
  TRACK 31 AUDIO
    TITLE "0:"
    INDEX 01 00:41:66
  TRACK 32 AUDIO
    TITLE "3:cjc172_6985"
    INDEX 01 00:42:38
  TRACK 33 AUDIO
    TITLE "0:"
    INDEX 01 00:43:43
  TRACK 34 AUDIO
    TITLE "4:cjc172_6986"
    INDEX 01 00:43:53
  TRACK 35 AUDIO
    TITLE "0:"
    INDEX 01 00:45:44
  TRACK 36 AUDIO
    TITLE "5:cjc172_6987"
    INDEX 01 00:45:52
  TRACK 37 AUDIO
    TITLE "0:"
    INDEX 01 00:49:75
  TRACK 38 AUDIO
    TITLE "3:cjc172_6988"
    INDEX 01 00:50:45
  TRACK 39 AUDIO
    TITLE "0:"
    INDEX 01 00:51:70
  TRACK 40 AUDIO
    TITLE "4:cjc172_6989"
    INDEX 01 00:52:05
  TRACK 41 AUDIO
    TITLE "0:"
    INDEX 01 00:53:28
  TRACK 42 AUDIO
    TITLE "5:cjc172_6990"
    INDEX 01 00:53:38
  TRACK 43 AUDIO
    TITLE "0:"
    INDEX 01 00:58:41
  TRACK 44 AUDIO
    TITLE "3:cjc172_6991"
    INDEX 01 00:59:15
  TRACK 45 AUDIO
    TITLE "0:"
    INDEX 01 01:00:20
  TRACK 46 AUDIO
    TITLE "4:cjc172_6992"
    INDEX 01 01:00:34
  TRACK 47 AUDIO
    TITLE "0:"
    INDEX 01 01:02:41
  TRACK 48 AUDIO
    TITLE "5:cjc172_6993"
    INDEX 01 01:02:51
  TRACK 49 AUDIO
    TITLE "0:"
    INDEX 01 01:07:30
  TRACK 50 AUDIO
    TITLE "3:cjc172_6994"
    INDEX 01 01:08:02
  TRACK 51 AUDIO
    TITLE "0:"
    INDEX 01 01:09:19
  TRACK 52 AUDIO
    TITLE "4:cjc172_6995"
    INDEX 01 01:09:29
  TRACK 53 AUDIO
    TITLE "0:"
    INDEX 01 01:11:30
  TRACK 54 AUDIO
    TITLE "5:cjc172_6996"
    INDEX 01 01:11:38
  TRACK 55 AUDIO
    TITLE "0:"
    INDEX 01 01:17:23
  TRACK 56 AUDIO
    TITLE "3:cjc172_6997"
    INDEX 01 01:17:70
  TRACK 57 AUDIO
    TITLE "0:"
    INDEX 01 01:18:73
  TRACK 58 AUDIO
    TITLE "4:cjc172_6998"
    INDEX 01 01:19:12
  TRACK 59 AUDIO
    TITLE "0:"
    INDEX 01 01:20:17
  TRACK 60 AUDIO
    TITLE "5:cjc172_6999"
    INDEX 01 01:20:25
  TRACK 61 AUDIO
    TITLE "0:"
    INDEX 01 01:24:54
  TRACK 62 AUDIO
    TITLE "3:cjc172_7000"
    INDEX 01 01:25:32
  TRACK 63 AUDIO
    TITLE "0:"
    INDEX 01 01:26:57
  TRACK 64 AUDIO
    TITLE "4:cjc172_7001"
    INDEX 01 01:26:61
  TRACK 65 AUDIO
    TITLE "0:"
    INDEX 01 01:28:03
  TRACK 66 AUDIO
    TITLE "5:cjc172_7002"
    INDEX 01 01:28:11
  TRACK 67 AUDIO
    TITLE "0:"
    INDEX 01 01:32:40
  TRACK 68 AUDIO
    TITLE "3:cjc172_7003"
    INDEX 01 01:33:12
  TRACK 69 AUDIO
    TITLE "0:"
    INDEX 01 01:34:19
  TRACK 70 AUDIO
    TITLE "4:cjc172_7004"
    INDEX 01 01:34:29
  TRACK 71 AUDIO
    TITLE "0:"
    INDEX 01 01:35:64
  TRACK 72 AUDIO
    TITLE "5:cjc172_7005"
    INDEX 01 01:36:01
  TRACK 73 AUDIO
    TITLE "0:"
    INDEX 01 01:40:51
  TRACK 74 AUDIO
    TITLE "2:cjc172_7006"
    INDEX 01 01:41:25
  TRACK 75 AUDIO
    TITLE "0:"
    INDEX 01 01:42:31
  TRACK 76 AUDIO
    TITLE "3:cjc172_7007"
    INDEX 01 01:43:03
  TRACK 77 AUDIO
    TITLE "0:"
    INDEX 01 01:44:31
  TRACK 78 AUDIO
    TITLE "4:cjc172_7008"
    INDEX 01 01:44:43
  TRACK 79 AUDIO
    TITLE "0:"
    INDEX 01 01:45:62
  TRACK 80 AUDIO
    TITLE "5:cjc172_7009"
    INDEX 01 01:45:72
  TRACK 81 AUDIO
    TITLE "0:"
    INDEX 01 01:49:74
